<?xml version="1.0" standalone="no"?>
<!DOCTYPE svg PUBLIC "-//W3C//DTD SVG 20010904//EN"
 "http://www.w3.org/TR/2001/REC-SVG-20010904/DTD/svg10.dtd">
<svg version="1.0" xmlns="http://www.w3.org/2000/svg"
 width="512.000000pt" height="512.000000pt" viewBox="0 0 512.000000 512.000000"
 preserveAspectRatio="xMidYMid meet">
<metadata>
Created by potrace 1.11, written by Peter Selinger 2001-2013
</metadata>
<g transform="translate(0.000000,512.000000) scale(0.100000,-0.100000)"
fill="#000000" stroke="none">
<path d="M79 5100 c-20 -10 -45 -32 -55 -47 -18 -27 -19 -64 -19 -1138 l0
-1110 25 -33 c49 -65 -16 -62 1184 -62 1019 0 1093 1 1125 18 19 9 44 30 55
45 21 28 21 32 21 1140 l0 1112 -24 34 c-46 64 18 61 -1183 61 -1055 -1 -1094
-2 -1129 -20z m2041 -1185 l0 -905 -910 0 -910 0 0 905 0 905 910 0 910 0 0
-905z"/>
<path d="M679 4500 c-20 -10 -45 -32 -55 -47 -18 -27 -19 -53 -19 -538 0 -574
-4 -545 76 -586 36 -18 63 -19 531 -19 544 0 535 -1 582 63 21 28 21 38 21
542 0 504 0 514 -21 542 -47 64 -38 63 -584 63 -467 -1 -497 -2 -531 -20z"/>
<path d="M2802 5103 c-18 -9 -43 -30 -55 -47 l-22 -31 0 -1110 c0 -1075 1
-1111 19 -1138 10 -16 36 -37 57 -48 37 -18 69 -19 1121 -19 1011 0 1085 1
1117 18 19 9 44 30 55 45 21 28 21 31 21 1142 0 1111 0 1114 -21 1142 -11 15
-36 36 -55 45 -32 17 -106 18 -1119 18 -979 0 -1088 -2 -1118 -17z m2018
-1188 l0 -905 -900 0 -900 0 0 905 0 905 900 0 900 0 0 -905z"/>
<path d="M3400 4501 c-19 -10 -45 -36 -57 -57 -23 -39 -23 -39 -23 -530 1
-552 -1 -537 76 -581 39 -23 41 -23 524 -23 535 0 527 -1 574 63 21 28 21 38
21 542 0 504 0 514 -21 542 -47 64 -39 63 -574 63 -453 0 -488 -1 -520 -19z"/>
<path d="M95 2398 c-40 -14 -83 -64 -90 -102 -3 -17 -5 -519 -3 -1116 3 -1030
4 -1086 21 -1112 10 -15 30 -35 45 -45 26 -17 80 -18 1143 -18 l1116 0 36 28
c23 17 40 41 47 65 8 26 10 369 8 1129 -3 1086 -3 1092 -24 1120 -11 15 -36
36 -55 45 -32 17 -105 18 -1124 17 -744 0 -1100 -4 -1120 -11z m2025 -1193 l0
-905 -910 0 -910 0 0 905 0 905 910 0 910 0 0 -905z"/>
<path d="M679 1790 c-20 -11 -46 -35 -58 -55 -21 -36 -21 -43 -18 -533 2 -558
-1 -532 78 -573 36 -18 63 -19 531 -19 544 0 535 -1 582 63 21 28 21 38 21
537 0 499 0 509 -21 537 -47 64 -38 63 -584 63 -468 -1 -497 -2 -531 -20z"/>
<path d="M2803 2392 c-17 -9 -42 -30 -55 -47 l-23 -30 -3 -1097 c-2 -1074 -2
-1099 17 -1136 37 -72 52 -77 267 -80 178 -3 195 -2 233 17 68 35 99 127 66
192 -37 71 -77 89 -195 89 l-90 0 0 305 0 305 149 0 149 0 4 -103 c4 -110 15
-139 66 -174 25 -17 62 -18 522 -21 457 -2 498 -1 529 15 19 10 44 31 55 46
20 27 21 42 24 375 2 315 1 350 -15 381 -26 50 -64 74 -125 79 -44 3 -59 0
-88 -20 -66 -44 -70 -64 -70 -335 l0 -243 -300 0 -300 0 0 300 0 299 254 3
c240 3 256 4 283 24 42 31 64 81 59 137 -4 57 -29 95 -77 120 -31 16 -65 17
-379 15 -467 -4 -434 22 -438 -345 l-3 -253 -150 0 -149 0 0 450 0 450 93 0
c101 1 139 14 176 61 39 50 36 137 -7 186 -41 47 -70 53 -264 53 -153 -1 -188
-4 -215 -18z"/>
<path d="M3705 2394 c-110 -57 -111 -211 -1 -268 22 -11 71 -15 215 -15 205
-1 233 5 275 62 31 42 29 131 -3 176 -39 55 -68 61 -273 61 -146 0 -189 -3
-213 -16z"/>
<path d="M4620 2402 c-94 -43 -128 -160 -67 -233 44 -53 70 -59 267 -59 188 0
220 6 261 49 36 38 47 116 23 163 -40 80 -67 88 -287 87 -100 0 -189 -3 -197
-7z"/>
<path d="M4904 1790 c-25 -13 -49 -35 -62 -59 l-22 -39 0 -696 0 -696 -90 0
c-110 0 -154 -18 -188 -78 -26 -47 -28 -91 -6 -135 41 -79 68 -87 284 -87 163
0 185 2 221 21 29 14 46 32 60 62 18 40 19 77 19 825 0 704 -2 786 -16 815
-42 81 -118 107 -200 67z"/>
<path d="M3708 286 c-78 -34 -109 -126 -69 -205 37 -71 51 -76 271 -79 171 -2
199 -1 229 15 55 29 76 65 76 133 0 68 -21 105 -76 132 -29 15 -62 18 -219 17
-122 0 -194 -5 -212 -13z"/>
</g>
</svg>
