<svg width="106" height="38" viewBox="0 0 106 38" fill="none" xmlns="http://www.w3.org/2000/svg">
<path d="M48.5671 26.7871L44.8326 14.5768H44.7372C44.8715 17.0608 44.9387 18.7179 44.9387 19.5482V26.7871H42V11.2236H46.4771L50.1478 23.1251H50.2115L54.1051 11.2236H58.5821V26.7871H55.5161V19.4205C55.5161 19.0727 55.5196 18.6718 55.5267 18.2176C55.5408 17.7634 55.5903 16.5569 55.6752 14.5981H55.5797L51.5801 26.7871H48.5671Z" fill="white"/>
<path d="M71.9921 26.7871L70.8676 23.0825H65.2129L64.0883 26.7871H60.5448L66.0192 11.1597H70.04L75.5356 26.7871H71.9921ZM70.0825 20.3147C69.0428 16.9579 68.4557 15.0594 68.3214 14.6194C68.194 14.1794 68.1021 13.8317 68.0455 13.5762C67.8121 14.4846 67.1437 16.7308 66.0404 20.3147H70.0825Z" fill="white"/>
<path d="M84.0866 13.7465C82.8488 13.7465 81.8905 14.2149 81.2115 15.1517C80.5325 16.0814 80.193 17.3801 80.193 19.0479C80.193 22.5183 81.4909 24.2535 84.0866 24.2535C85.1758 24.2535 86.4949 23.9803 88.0438 23.4338V26.2016C86.7707 26.7339 85.3491 27 83.7789 27C81.5227 27 79.7969 26.3151 78.6016 24.9454C77.4063 23.5686 76.8087 21.5957 76.8087 19.0266C76.8087 17.4085 77.1022 15.9927 77.6893 14.7791C78.2763 13.5584 79.118 12.6252 80.2142 11.9794C81.3176 11.3265 82.6084 11 84.0866 11C85.5931 11 87.1067 11.3655 88.6273 12.0965L87.5664 14.7791C86.9864 14.5023 86.4029 14.261 85.8159 14.0552C85.2288 13.8494 84.6524 13.7465 84.0866 13.7465Z" fill="white"/>
<path d="M104 26.7871H100.266L94.6427 18.8989V26.7871H91.3539V11.2236H94.6427V18.7605L100.202 11.2236H103.703L98.0483 18.6966L104 26.7871Z" fill="white"/>
<path fill-rule="evenodd" clip-rule="evenodd" d="M7.35386 11.6461L0 19L7.35391 26.3539L9.6168 24.091L4.52578 19L9.61675 13.909L7.35386 11.6461ZM22.0618 26.3541L24.3242 28.6165L26.587 26.3538L24.3246 24.0914L29.4159 19L24.3246 13.9087L26.5872 11.6461L33.9411 19L16.9706 35.9706L9.61665 28.6166L11.8795 26.3538L16.9709 31.4451L22.0618 26.3541ZM11.8795 11.6463L9.6166 9.3834L16.9706 2.02944L24.3245 9.38334L22.0619 11.6459L16.9709 6.55492L11.8795 11.6463Z" fill="white"/>
</svg>
