<svg width="125" height="38" viewBox="0 0 125 38" fill="none" xmlns="http://www.w3.org/2000/svg">
<path d="M40.002 13.0234C38.6411 13.0234 37.5874 13.5391 36.8409 14.5703C36.0943 15.5938 35.7211 17.0234 35.7211 18.8594C35.7211 22.6797 37.148 24.5898 40.002 24.5898C41.1996 24.5898 42.6499 24.2891 44.353 23.6875V26.7344C42.9532 27.3203 41.3901 27.6133 39.6638 27.6133C37.183 27.6133 35.2856 26.8594 33.9713 25.3516C32.6571 23.8359 32 21.6641 32 18.8359C32 17.0547 32.3227 15.4961 32.9682 14.1602C33.6136 12.8164 34.539 11.7891 35.7444 11.0781C36.9575 10.3594 38.3767 10 40.002 10C41.6584 10 43.3226 10.4023 44.9945 11.207L43.8281 14.1602C43.1904 13.8555 42.5488 13.5898 41.9034 13.3633C41.2579 13.1367 40.6241 13.0234 40.002 13.0234Z" fill="white"/>
<path d="M61.8968 27.3789H57.7908L51.6085 18.6953V27.3789H47.9924V10.2461H51.6085V18.543L57.7208 10.2461H61.5702L55.3529 18.4727L61.8968 27.3789Z" fill="white"/>
<path d="M74.4831 27.3789L73.2466 23.3008H67.0293L65.7928 27.3789H61.8968L67.9158 10.1758H72.3368L78.3791 27.3789H74.4831ZM72.3834 20.2539C71.2403 16.5586 70.5948 14.4688 70.4471 13.9844C70.3071 13.5 70.206 13.1172 70.1438 12.8359C69.8872 13.8359 69.1523 16.3086 67.9391 20.2539H72.3834Z" fill="white"/>
<path d="M94.5115 27.3789H90.9071V19.9844H84.1532V27.3789H80.5371V10.2461H84.1532V16.9609H90.9071V10.2461H94.5115V27.3789Z" fill="white"/>
<path d="M108.649 27.3789H98.8274V10.2461H108.649V13.2227H102.444V16.9844H108.218V19.9609H102.444V24.3789H108.649V27.3789Z" fill="white"/>
<path d="M115.835 18.3086H117.024C118.137 18.3086 118.969 18.0898 119.521 17.6523C120.073 17.207 120.349 16.5625 120.349 15.7188C120.349 14.8672 120.116 14.2383 119.649 13.832C119.19 13.4258 118.467 13.2227 117.479 13.2227H115.835V18.3086ZM124 15.5898C124 17.4336 123.425 18.8438 122.274 19.8203C121.13 20.7969 119.501 21.2852 117.386 21.2852H115.835V27.3789H112.219V10.2461H117.666C119.735 10.2461 121.305 10.6953 122.379 11.5938C123.46 12.4844 124 13.8164 124 15.5898Z" fill="white"/>
<path fill-rule="evenodd" clip-rule="evenodd" d="M24 17.4001L24 7L13.6001 7L13.6001 10.2003L20.7997 10.2003L20.7997 17.4001L24 17.4001ZM24 20.6001L20.7997 20.6001L20.7997 27.8003L13.6001 27.8003L13.6001 31L24 31L24 20.6001ZM3.19971 17.4001L3.19971 10.2003L10.4001 10.2003L10.4001 7L1.90735e-06 7L1.45274e-06 17.4001L3.19971 17.4001ZM1.31287e-06 20.6001L8.58275e-07 31L10.4001 31L10.4001 27.8003L3.19971 27.8003L3.19971 20.6001L1.31287e-06 20.6001Z" fill="white"/>
<path fill-rule="evenodd" clip-rule="evenodd" d="M16 15.4H8V13H16V15.4Z" fill="#FBFBFF"/>
<path fill-rule="evenodd" clip-rule="evenodd" d="M16 24.9996H8V22.5996H16V24.9996Z" fill="#FBFBFF"/>
<path fill-rule="evenodd" clip-rule="evenodd" d="M18.4016 20.2008H5.60156V17.8008H18.4016V20.2008Z" fill="#FBFBFF"/>
</svg>
