<svg width="129" height="38" viewBox="0 0 129 38" fill="none" xmlns="http://www.w3.org/2000/svg">
<path d="M39.4102 27.2031L35.2852 13.7617H35.1797C35.3281 16.4961 35.4023 18.3203 35.4023 19.2344V27.2031H32.1562V10.0703H37.1016L41.1562 23.1719H41.2266L45.5273 10.0703H50.4727V27.2031H47.0859V19.0938C47.0859 18.7109 47.0898 18.2695 47.0977 17.7695C47.1133 17.2695 47.168 15.9414 47.2617 13.7852H47.1562L42.7383 27.2031H39.4102Z" fill="white"/>
<path d="M65.2852 27.2031L64.043 23.125H57.7969L56.5547 27.2031H52.6406L58.6875 10H63.1289L69.1992 27.2031H65.2852ZM63.1758 20.0781C62.0273 16.3828 61.3789 14.293 61.2305 13.8086C61.0898 13.3242 60.9883 12.9414 60.9258 12.6602C60.668 13.6602 59.9297 16.1328 58.7109 20.0781H63.1758Z" fill="white"/>
<path d="M75 18.1328H76.1953C77.3125 18.1328 78.1484 17.9141 78.7031 17.4766C79.2578 17.0312 79.5352 16.3867 79.5352 15.543C79.5352 14.6914 79.3008 14.0625 78.832 13.6562C78.3711 13.25 77.6445 13.0469 76.6523 13.0469H75V18.1328ZM83.2031 15.4141C83.2031 17.2578 82.625 18.668 81.4688 19.6445C80.3203 20.6211 78.6836 21.1094 76.5586 21.1094H75V27.2031H71.3672V10.0703H76.8398C78.918 10.0703 80.4961 10.5195 81.5742 11.418C82.6602 12.3086 83.2031 13.6406 83.2031 15.4141Z" fill="white"/>
<path d="M100.406 27.2031H96.2812L90.0703 18.5195V27.2031H86.4375V10.0703H90.0703V18.3672L96.2109 10.0703H100.078L93.832 18.2969L100.406 27.2031Z" fill="white"/>
<path d="M112.43 27.2031H102.562V10.0703H112.43V13.0469H106.195V16.8086H111.996V19.7852H106.195V24.2031H112.43V27.2031Z" fill="white"/>
<path d="M119.648 18.1328H120.844C121.961 18.1328 122.797 17.9141 123.352 17.4766C123.906 17.0312 124.184 16.3867 124.184 15.543C124.184 14.6914 123.949 14.0625 123.48 13.6562C123.02 13.25 122.293 13.0469 121.301 13.0469H119.648V18.1328ZM127.852 15.4141C127.852 17.2578 127.273 18.668 126.117 19.6445C124.969 20.6211 123.332 21.1094 121.207 21.1094H119.648V27.2031H116.016V10.0703H121.488C123.566 10.0703 125.145 10.5195 126.223 11.418C127.309 12.3086 127.852 13.6406 127.852 15.4141Z" fill="white"/>
<path fill-rule="evenodd" clip-rule="evenodd" d="M10.4001 7L0 7L0 17.3999H3.20028L3.20028 10.2003H10.4001V7ZM13.6001 7V10.2003L20.8003 10.2003V17.3999H24V7L13.6001 7ZM10.4001 27.8003H3.20028L3.20028 20.5999H0L0 31H10.4001V27.8003ZM13.6001 31H24V20.5999H20.8003V27.8003H13.6001V31Z" fill="white"/>
<path fill-rule="evenodd" clip-rule="evenodd" d="M10.6538 23.8002L10.6538 14.2002L13.3418 14.2002L13.3418 23.8002L10.6538 23.8002Z" fill="#FBFBFF"/>
<path fill-rule="evenodd" clip-rule="evenodd" d="M16.7992 20.3433H7.19922V17.6553H16.7992V20.3433Z" fill="#FBFBFF"/>
</svg>
