<svg width="94" height="33" viewBox="0 0 94 33" fill="none" xmlns="http://www.w3.org/2000/svg">
<path d="M46.4082 24L42.2832 10.5586H42.1777C42.3262 13.293 42.4004 15.1172 42.4004 16.0312V24H39.1543V6.86719H44.0996L48.1543 19.9688H48.2246L52.5254 6.86719H57.4707V24H54.084V15.8906C54.084 15.5078 54.0879 15.0664 54.0957 14.5664C54.1113 14.0664 54.166 12.7383 54.2598 10.582H54.1543L49.7363 24H46.4082ZM73.9187 19.992L77.7107 24H73.0787L71.6627 22.392C70.9587 23.112 70.1987 23.632 69.3827 23.952C68.5827 24.272 67.6787 24.432 66.6707 24.432C65.9027 24.432 65.1587 24.328 64.4387 24.12C63.7187 23.912 63.0707 23.6 62.4947 23.184C61.9347 22.752 61.4867 22.216 61.1507 21.576C60.8147 20.936 60.6467 20.192 60.6467 19.344C60.6467 18.8 60.7347 18.288 60.9107 17.808C61.1027 17.312 61.3587 16.864 61.6787 16.464C62.0147 16.064 62.3987 15.72 62.8307 15.432C63.2627 15.128 63.7347 14.888 64.2467 14.712C63.9747 14.408 63.7187 14.12 63.4787 13.848C63.2547 13.576 63.0547 13.288 62.8787 12.984C62.7187 12.68 62.5907 12.36 62.4947 12.024C62.4147 11.688 62.3747 11.312 62.3747 10.896C62.3747 10.128 62.5187 9.472 62.8067 8.928C63.1107 8.384 63.5107 7.936 64.0067 7.584C64.5027 7.232 65.0707 6.976 65.7107 6.816C66.3507 6.656 67.0067 6.576 67.6787 6.576C68.3347 6.576 68.9587 6.664 69.5507 6.84C70.1427 7 70.6627 7.256 71.1107 7.608C71.5747 7.944 71.9427 8.376 72.2147 8.904C72.4867 9.416 72.6227 10.032 72.6227 10.752C72.6227 11.264 72.5347 11.736 72.3587 12.168C72.1987 12.6 71.9747 13.008 71.6867 13.392C71.3987 13.76 71.0627 14.096 70.6787 14.4C70.3107 14.688 69.9107 14.944 69.4787 15.168L71.6627 17.496L73.3187 15.24H77.4947L73.9187 19.992ZM67.6307 9.456C67.1667 9.456 66.7747 9.6 66.4547 9.888C66.1347 10.176 65.9747 10.56 65.9747 11.04C65.9747 11.248 66.0227 11.456 66.1187 11.664C66.2147 11.856 66.3267 12.048 66.4547 12.24C66.5987 12.416 66.7507 12.584 66.9107 12.744C67.0867 12.904 67.2467 13.048 67.3907 13.176C67.5827 13.064 67.7907 12.936 68.0147 12.792C68.2387 12.632 68.4467 12.464 68.6387 12.288C68.8307 12.096 68.9907 11.896 69.1187 11.688C69.2467 11.464 69.3107 11.232 69.3107 10.992C69.3107 10.496 69.1427 10.12 68.8067 9.864C68.4867 9.592 68.0947 9.456 67.6307 9.456ZM66.4787 16.752C66.2387 16.896 65.9987 17.048 65.7587 17.208C65.5347 17.352 65.3267 17.52 65.1347 17.712C64.9587 17.888 64.8147 18.096 64.7027 18.336C64.5907 18.576 64.5347 18.856 64.5347 19.176C64.5347 19.496 64.5987 19.784 64.7267 20.04C64.8547 20.296 65.0227 20.512 65.2307 20.688C65.4387 20.864 65.6787 21.008 65.9507 21.12C66.2387 21.216 66.5267 21.264 66.8147 21.264C67.3747 21.264 67.8547 21.144 68.2547 20.904C68.6707 20.664 69.0787 20.368 69.4787 20.016L66.4787 16.752ZM87.2832 9.64453C85.916 9.64453 84.8574 10.1602 84.1074 11.1914C83.3574 12.2148 82.9824 13.6445 82.9824 15.4805C82.9824 19.3008 84.416 21.2109 87.2832 21.2109C88.4863 21.2109 89.9434 20.9102 91.6543 20.3086V23.3555C90.248 23.9414 88.6777 24.2344 86.9434 24.2344C84.4512 24.2344 82.5449 23.4805 81.2246 21.9727C79.9043 20.457 79.2441 18.2852 79.2441 15.457C79.2441 13.6758 79.5684 12.1172 80.2168 10.7812C80.8652 9.4375 81.7949 8.41016 83.0059 7.69922C84.2246 6.98047 85.6504 6.62109 87.2832 6.62109C88.9473 6.62109 90.6191 7.02344 92.2988 7.82812L91.127 10.7812C90.4863 10.4766 89.8418 10.2109 89.1934 9.98438C88.5449 9.75781 87.9082 9.64453 87.2832 9.64453Z" fill="white"/>
<path fill-rule="evenodd" clip-rule="evenodd" d="M16.2207 29.6594L10.7828 24.584L11.5636 23.7474L16.1649 28.042L20.4595 23.4407L21.2961 24.2215L16.2207 29.6594Z" fill="white" stroke="#FFFAFA" stroke-width="2"/>
<path fill-rule="evenodd" clip-rule="evenodd" d="M15.4922 2L20.9301 7.0754L20.1493 7.912L15.548 3.61743L11.2534 8.21876L10.4168 7.43793L15.4922 2Z" fill="white" stroke="#FFFAFA" stroke-width="2"/>
<path fill-rule="evenodd" clip-rule="evenodd" d="M2 16.3855L7.0754 10.9476L7.912 11.7284L3.61743 16.3297L8.21876 20.6243L7.43793 21.4609L2 16.3855Z" fill="white" stroke="#FFFAFA" stroke-width="2"/>
<path fill-rule="evenodd" clip-rule="evenodd" d="M29.7148 15.2737L24.6394 20.7116L23.8028 19.9308L28.0974 15.3295L23.4961 11.0349L24.2769 10.1983L29.7148 15.2737Z" fill="white" stroke="#FFFAFA" stroke-width="2"/>
</svg>
