<svg width="40" height="40" viewBox="0 0 40 40" fill="none" xmlns="http://www.w3.org/2000/svg">
<g clip-path="url(#clip0)">
<path d="M5.55191 12.957C4.86271 12.957 4.27795 13.1974 3.79727 13.6781C3.31659 14.1587 3.07617 14.7355 3.07617 15.4088V25.7452C3.07617 26.4353 3.31651 27.0195 3.79727 27.5003C4.27795 27.981 4.86271 28.2214 5.55191 28.2214C6.2406 28.2214 6.82181 27.981 7.29505 27.5003C7.76734 27.0196 8.00413 26.4353 8.00413 25.7452V15.4088C8.00413 14.7355 7.76379 14.1587 7.28304 13.6781C6.80229 13.1974 6.22512 12.957 5.55191 12.957Z" fill="black"/>
<path d="M25.4551 3.67757L27.1619 0.529052C27.2739 0.320607 27.2341 0.160766 27.042 0.0483703C26.8334 -0.0485471 26.6732 0.000562549 26.5613 0.192228L24.8307 3.36591C23.3078 2.69263 21.6972 2.35537 19.9987 2.35537C18.2999 2.35537 16.6892 2.6927 15.1669 3.36591L13.4362 0.192228C13.3237 0.000562549 13.1635 -0.0481132 12.9555 0.0483703C12.763 0.161272 12.7231 0.320607 12.8356 0.529052L14.5424 3.67757C12.8117 4.56017 11.4333 5.78936 10.4077 7.36781C9.38215 8.94713 8.86914 10.673 8.86914 12.5484H31.1042C31.1042 10.6734 30.5911 8.94749 29.5656 7.36781C28.5399 5.78936 27.1695 4.56017 25.4551 3.67757ZM15.5874 8.25713C15.4028 8.44215 15.1824 8.53422 14.9261 8.53422C14.6694 8.53422 14.4534 8.44215 14.2772 8.25713C14.101 8.07299 14.0129 7.85341 14.0129 7.59629C14.0129 7.34003 14.101 7.12002 14.2772 6.93544C14.4534 6.7513 14.6699 6.65923 14.9261 6.65923C15.1824 6.65923 15.4028 6.7513 15.5874 6.93544C15.7715 7.12045 15.8641 7.34003 15.8641 7.59629C15.8635 7.85297 15.7711 8.07299 15.5874 8.25713ZM25.7193 8.25713C25.5428 8.44215 25.3263 8.53422 25.0705 8.53422C24.8137 8.53422 24.5933 8.44215 24.4091 8.25713C24.2246 8.07299 24.1325 7.85341 24.1325 7.59629C24.1325 7.34003 24.2246 7.12002 24.4091 6.93544C24.5933 6.7513 24.8137 6.65923 25.0705 6.65923C25.3267 6.65923 25.5427 6.7513 25.7193 6.93544C25.8957 7.12045 25.9836 7.34003 25.9836 7.59629C25.9836 7.85297 25.8956 8.07299 25.7193 8.25713Z" fill="black"/>
<path d="M8.96484 29.4228C8.96484 30.1607 9.2211 30.7853 9.73367 31.2979C10.2467 31.8105 10.8713 32.0667 11.6087 32.0667H13.3876L13.412 37.524C13.412 38.2132 13.6523 38.7984 14.133 39.2791C14.6137 39.7599 15.1909 40.0002 15.8637 40.0002C16.5525 40.0002 17.1376 39.7599 17.6183 39.2791C18.0991 38.7984 18.3394 38.2132 18.3394 37.524V32.0672H21.6566V37.524C21.6566 38.2132 21.8969 38.7984 22.3776 39.2791C22.8584 39.7599 23.443 40.0002 24.1323 40.0002C24.821 40.0002 25.4062 39.7599 25.8869 39.2791C26.3677 38.7984 26.6079 38.2132 26.6079 37.524V32.0672H28.4109C29.1319 32.0672 29.7485 31.8109 30.262 31.2983C30.7745 30.7858 31.0309 30.1611 31.0309 29.4233V13.4131H8.96484V29.4228Z" fill="black"/>
<path d="M34.4459 12.957C33.7726 12.957 33.1959 13.1938 32.7152 13.6661C32.2345 14.1393 31.9941 14.7205 31.9941 15.4088V25.7452C31.9941 26.4353 32.2344 27.0195 32.7152 27.5003C33.1959 27.981 33.7731 28.2214 34.4459 28.2214C35.1347 28.2214 35.7198 27.981 36.2006 27.5003C36.6813 27.0195 36.9216 26.4353 36.9216 25.7452V15.4088C36.9216 14.7204 36.6813 14.1393 36.2006 13.6661C35.7198 13.1938 35.1347 12.957 34.4459 12.957Z" fill="black"/>
</g>
<defs>
<clipPath id="clip0">
<rect width="40" height="40" fill="white"/>
</clipPath>
</defs>
</svg>
