<svg width="41" height="41" viewBox="0 0 41 41" fill="none" xmlns="http://www.w3.org/2000/svg">
<path d="M14.8351 40.9995C8.73303 40.9643 3.68555 28.508 3.68555 22.1643C3.68555 11.8019 11.4591 9.53324 14.455 9.53324C15.8051 9.53324 17.2468 10.0634 18.5183 10.5326C19.4075 10.8599 20.3271 11.1977 20.8386 11.1977C21.1447 11.1977 21.8662 10.9103 22.5031 10.6582C23.8615 10.1174 25.5518 9.44531 27.5201 9.44531C27.5236 9.44531 27.5283 9.44531 27.5318 9.44531C29.0015 9.44531 33.4579 9.76787 36.137 13.7913L36.7646 14.7344L35.8614 15.4159C34.5711 16.3895 32.2168 18.1655 32.2168 21.6834C32.2168 25.85 34.8831 27.4523 36.164 28.223C36.7295 28.5632 37.3148 28.9139 37.3148 29.6811C37.3148 30.1819 33.3171 40.9373 27.5118 40.9373C26.0913 40.9373 25.0872 40.5103 24.2016 40.1338C23.3054 39.7526 22.5323 39.4242 21.2549 39.4242C20.6074 39.4242 19.7886 39.7303 18.9218 40.0553C17.7372 40.4974 16.3963 40.9995 14.8749 40.9995H14.8351Z" fill="#B8BABB"/>
<path d="M28.1362 0C28.2874 5.4514 24.3888 9.23333 20.4947 8.99614C19.8531 4.64573 24.3883 0 28.1362 0Z" fill="#B8BABB"/>
</svg>
