<svg width="208" height="38" viewBox="0 0 208 38" fill="none" xmlns="http://www.w3.org/2000/svg">
<path d="M15.8145 38L6.87695 8.87695H6.64844C6.97005 14.8014 7.13086 18.7539 7.13086 20.7344V38H0.0976562V0.878906H10.8125L19.5977 29.2656H19.75L29.0684 0.878906H39.7832V38H32.4453V20.4297C32.4453 19.6003 32.4538 18.6439 32.4707 17.5605C32.5046 16.4772 32.623 13.5996 32.8262 8.92773H32.5977L23.0254 38H15.8145ZM71.877 38L69.1855 29.1641H55.6523L52.9609 38H44.4805L57.582 0.726562H67.2051L80.3574 38H71.877ZM67.3066 22.5625C64.8184 14.556 63.4134 10.028 63.0918 8.97852C62.7871 7.92904 62.5671 7.09961 62.4316 6.49023C61.873 8.6569 60.2734 14.0143 57.6328 22.5625H67.3066ZM92.9258 18.3477H95.5156C97.9362 18.3477 99.7474 17.8737 100.949 16.9258C102.151 15.9609 102.752 14.5645 102.752 12.7363C102.752 10.8913 102.244 9.52865 101.229 8.64844C100.23 7.76823 98.6556 7.32812 96.5059 7.32812H92.9258V18.3477ZM110.699 12.457C110.699 16.4518 109.447 19.5072 106.941 21.623C104.453 23.7389 100.907 24.7969 96.3027 24.7969H92.9258V38H85.0547V0.878906H96.9121C101.415 0.878906 104.834 1.85221 107.17 3.79883C109.523 5.72852 110.699 8.61458 110.699 12.457ZM147.973 38H139.035L125.578 19.1855V38H117.707V0.878906H125.578V18.8555L138.883 0.878906H147.262L133.729 18.7031L147.973 38ZM174.023 38H152.645V0.878906H174.023V7.32812H160.516V15.4785H173.084V21.9277H160.516V31.5H174.023V38ZM189.664 18.3477H192.254C194.674 18.3477 196.486 17.8737 197.688 16.9258C198.889 15.9609 199.49 14.5645 199.49 12.7363C199.49 10.8913 198.982 9.52865 197.967 8.64844C196.968 7.76823 195.394 7.32812 193.244 7.32812H189.664V18.3477ZM207.438 12.457C207.438 16.4518 206.185 19.5072 203.68 21.623C201.191 23.7389 197.645 24.7969 193.041 24.7969H189.664V38H181.793V0.878906H193.65C198.153 0.878906 201.572 1.85221 203.908 3.79883C206.261 5.72852 207.438 8.61458 207.438 12.457Z" fill="white"/>
</svg>
