<svg width="30" height="39" viewBox="0 0 30 39" fill="none" xmlns="http://www.w3.org/2000/svg">
<path d="M18.3965 6.89648C15.4342 6.89648 13.1406 8.01367 11.5156 10.248C9.89062 12.4655 9.07812 15.5632 9.07812 19.541C9.07812 27.8184 12.1842 31.957 18.3965 31.957C21.0033 31.957 24.1602 31.3053 27.8672 30.002V36.6035C24.8203 37.873 21.418 38.5078 17.6602 38.5078C12.2604 38.5078 8.13021 36.8743 5.26953 33.6074C2.40885 30.3236 0.978516 25.6178 0.978516 19.4902C0.978516 15.6309 1.68099 12.2539 3.08594 9.35938C4.49089 6.44792 6.50521 4.22201 9.12891 2.68164C11.7695 1.12435 14.8587 0.345703 18.3965 0.345703C22.002 0.345703 25.6243 1.21745 29.2637 2.96094L26.7246 9.35938C25.3366 8.69922 23.9401 8.1237 22.5352 7.63281C21.1302 7.14193 19.7507 6.89648 18.3965 6.89648Z" fill="white"/>
</svg>
