<svg width="201" height="39" viewBox="0 0 201 39" fill="none" xmlns="http://www.w3.org/2000/svg">
<path d="M17.8652 6.89648C14.903 6.89648 12.6094 8.01367 10.9844 10.248C9.35938 12.4655 8.54688 15.5632 8.54688 19.541C8.54688 27.8184 11.653 31.957 17.8652 31.957C20.472 31.957 23.6289 31.3053 27.3359 30.002V36.6035C24.2891 37.873 20.8867 38.5078 17.1289 38.5078C11.7292 38.5078 7.59896 36.8743 4.73828 33.6074C1.8776 30.3236 0.447266 25.6178 0.447266 19.4902C0.447266 15.6309 1.14974 12.2539 2.55469 9.35938C3.95964 6.44792 5.97396 4.22201 8.59766 2.68164C11.2383 1.12435 14.3275 0.345703 17.8652 0.345703C21.4707 0.345703 25.0931 1.21745 28.7324 2.96094L26.1934 9.35938C24.8053 8.69922 23.4089 8.1237 22.0039 7.63281C20.599 7.14193 19.2194 6.89648 17.8652 6.89648ZM65.5234 38H56.5859L43.1289 19.1855V38H35.2578V0.878906H43.1289V18.8555L56.4336 0.878906H64.8125L51.2793 18.7031L65.5234 38ZM92.9199 38L90.2285 29.1641H76.6953L74.0039 38H65.5234L78.625 0.726562H88.248L101.4 38H92.9199ZM88.3496 22.5625C85.8613 14.556 84.4564 10.028 84.1348 8.97852C83.8301 7.92904 83.61 7.09961 83.4746 6.49023C82.916 8.6569 81.3164 14.0143 78.6758 22.5625H88.3496ZM136.516 38H128.67V21.9785H113.969V38H106.098V0.878906H113.969V15.4277H128.67V0.878906H136.516V38ZM167.289 38H145.91V0.878906H167.289V7.32812H153.781V15.4785H166.35V21.9277H153.781V31.5H167.289V38ZM182.93 18.3477H185.52C187.94 18.3477 189.751 17.8737 190.953 16.9258C192.155 15.9609 192.756 14.5645 192.756 12.7363C192.756 10.8913 192.248 9.52865 191.232 8.64844C190.234 7.76823 188.66 7.32812 186.51 7.32812H182.93V18.3477ZM200.703 12.457C200.703 16.4518 199.451 19.5072 196.945 21.623C194.457 23.7389 190.911 24.7969 186.307 24.7969H182.93V38H175.059V0.878906H186.916C191.419 0.878906 194.838 1.85221 197.174 3.79883C199.527 5.72852 200.703 8.61458 200.703 12.457Z" fill="white"/>
</svg>
