<svg width="82" height="39" viewBox="0 0 82 39" fill="none" xmlns="http://www.w3.org/2000/svg">
<g clip-path="url(#clip0)">
<path d="M67.1445 23.727C66.8242 23.727 66.5439 23.4878 66.5439 23.1687C66.5439 23.1687 66.5439 23.1687 66.5439 23.1289V14.0368V13.997V13.9571C66.584 13.6779 66.8242 13.4786 67.1045 13.4786C67.3848 13.4786 67.665 13.6779 67.665 13.9571V13.997V14.0368V23.1687C67.665 23.1687 67.665 23.1687 67.665 23.2086C67.7451 23.4878 67.4648 23.727 67.1445 23.727ZM68.2656 11.8037H66.0635C64.2217 11.8037 64.1016 13.2792 64.1016 14.2362V22.9694C64.1016 23.9264 64.2217 25.4019 66.0635 25.4019H68.2256C70.0674 25.4019 70.1875 23.9264 70.1875 22.9694V14.2362C70.1875 13.2792 70.0674 11.8037 68.2656 11.8037Z" fill="#3279BD"/>
<path d="M27.3477 11.8037H32.3525V13.4786H29.9502V25.4019H27.3477V11.8037Z" fill="#3279BD"/>
<path d="M32.7109 25.4019H35.2734L35.5137 21.773H36.7549L36.9951 25.4019H39.5576L38.1963 11.8037H34.1123L32.7109 25.4019ZM35.6338 20.2976L36.0742 13.4786H36.2344L36.6748 20.2976H35.6338Z" fill="#3279BD"/>
<path d="M43.3613 20.6566V23.2088C43.3613 23.5677 43.6416 23.6474 43.7617 23.6474C44.002 23.6474 44.1621 23.448 44.1621 23.2088V20.0585C44.1621 19.6198 44.082 19.1812 43.1211 19.1812H42.04V17.6658H43.1611C43.9219 17.6658 44.1621 17.5063 44.1621 16.6689V13.9572C44.1621 13.718 44.002 13.5186 43.7617 13.5186C43.6016 13.5186 43.3613 13.5984 43.3613 13.9572V16.1904H40.7188V14.2763C40.7188 13.3192 40.8389 11.8438 42.6807 11.8438H44.8428C46.6846 11.8438 46.8047 13.3192 46.8047 14.2763V16.4695C46.8047 17.945 45.8037 18.3438 45.0029 18.3039V18.4235C46.7646 18.3836 46.8047 19.7793 46.8047 20.2579V23.0094C46.8047 23.9664 46.6846 25.4419 44.8428 25.4419H42.6807C40.8389 25.4419 40.7188 23.9664 40.7188 23.0094V20.6566H43.3613Z" fill="#3279BD"/>
<path d="M48.5273 11.8037H54.6133V25.4019H52.1309V13.4786H50.9697V25.4019H48.5273V11.8037Z" fill="#3279BD"/>
<path d="M56.4941 25.4019H59.1367V20.7761H60.6182C62.46 20.7761 62.7402 19.3006 62.7402 18.3436V14.2362C62.7402 13.2792 62.46 11.8037 60.6182 11.8037H56.4941V25.4019ZM59.1367 19.2608V13.4786H59.8174C60.0977 13.4786 60.2979 13.7178 60.2979 14.1565V18.5828C60.2979 19.0215 60.0977 19.2608 59.8174 19.2608H59.1367Z" fill="#3279BD"/>
<path d="M78.5566 11.8037H82V25.4019H79.3574V16.8681H79.2773L77.916 25.4019H75.834L74.4727 16.8681H74.3926V25.4019H71.75V11.8037H75.1533L76.875 21.3743L78.5566 11.8037Z" fill="#3279BD"/>
<path d="M21.7405 13.1595C21.7004 14.5552 21.5403 15.9908 21.3401 16.8681C21.4202 15.3528 21.22 13.2393 20.8997 11.6043C20.5393 9.96933 19.5784 7.17791 18.7776 5.90184C18.0569 7.09816 17.176 9.4908 16.6956 11.5644C16.2151 13.638 16.2151 16.1503 16.2151 16.908C16.095 16.2699 15.7747 13.9969 15.8547 11.7239C15.9348 9.84969 16.3752 7.93558 16.6155 7.05828C17.5364 4.10736 18.5774 2.19325 18.7776 1.91411C18.9778 2.23313 20.2991 4.54601 20.9797 6.97853C21.6204 9.45092 21.7405 11.8037 21.7405 13.1595ZM18.7776 23.727C18.3772 22.9693 17.7366 21.4939 17.6565 19.2607C17.6565 17.0675 18.4973 15.2331 18.7776 14.8344C19.0178 15.2331 19.7786 16.8282 19.8586 19.0613C19.9387 21.2546 19.178 22.9693 18.7776 23.727ZM21.9807 7.05828C21.1399 3.42945 19.0579 0.518405 18.7776 0C18.3372 0.677914 16.6555 3.26994 15.8147 6.1411C14.8938 9.37117 14.7737 12.2025 15.094 14.9939C15.4143 17.7853 16.6155 20.6963 16.6155 20.6963C17.2561 22.2117 18.217 23.8466 18.8176 24.6442C19.7385 23.4877 21.8206 19.9785 22.4612 15.4325C22.7815 12.8804 22.7815 10.6472 21.9807 7.05828Z" fill="#3279BD"/>
<path d="M13.6934 25.4022V29.6691C15.1748 28.1936 17.6172 28.1936 19.1387 29.6691C20.6602 31.1445 20.6602 33.577 19.1387 35.0525C19.1387 35.0525 19.1387 35.0525 19.0986 35.0525C19.0986 35.0525 19.0986 35.0525 19.0586 35.0924C17.5771 36.5678 15.6152 37.3255 13.6533 37.3255C11.6914 37.3255 9.72949 36.5678 8.20801 35.0924C5.56543 32.4605 5.24512 28.393 7.24707 25.4421C7.52734 25.0433 7.84766 24.6445 8.20801 24.3255C9.72949 22.85 11.6914 22.0924 13.6533 22.0924V11.8838C6.12598 11.8838 0 17.9451 0 25.4421C0 32.939 6.12598 39.0004 13.6934 39.0004C17.6172 39.0004 21.1807 37.3255 23.6631 34.6936V25.4022H13.6934Z" fill="#3279BD"/>
<path d="M79.5586 35.8102C79.5586 37.0863 78.958 37.3255 77.4766 37.3255H76.0752V31.4237H77.4766V33.6967H77.7168C79.0781 33.6967 79.5986 34.0157 79.5986 35.212V35.8102H79.5586ZM67.9873 32.5403H66.9463V37.3255H65.625V32.5403H64.4639V31.4237H67.9473V32.5403H67.9873ZM57.3369 35.212C57.3369 36.4084 56.7363 36.7274 55.375 36.7274V37.3255H54.0137V36.7274C52.6523 36.7274 52.0117 36.4084 52.0117 35.212V33.3777C52.0117 32.1814 52.6123 31.8624 54.0137 31.8624V31.4237H55.375V31.8624C56.7764 31.8624 57.3369 32.1814 57.3369 33.3777V35.212ZM44.7646 32.5403H42.8428V33.6967H44.5244V34.8133H42.8428V36.209H44.7246V37.3255H41.4014V31.4237H44.7246V32.5403H44.7646ZM33.2734 37.3255H31.8721V34.7335H31.1514V37.3255H29.75V31.4237H31.1514V33.6967H31.8721V31.4237H33.2734V37.3255ZM82.001 29.9482H27.3477V39.0403H82.001V29.9482ZM53.333 33.3378V35.212C53.333 35.5709 53.4531 35.6507 53.7334 35.6507H53.9736V32.8992H53.7334C53.4531 32.8992 53.333 32.9789 53.333 33.3378ZM77.7568 34.7335H77.4365V36.2887H77.7568C78.0771 36.2887 78.1572 36.209 78.1572 35.89V35.1722C78.1572 34.8133 78.0771 34.7335 77.7568 34.7335ZM55.5352 32.8992H55.335V35.6507H55.5352C55.8555 35.6507 55.9756 35.5709 55.9756 35.212V33.2979C55.9756 32.9789 55.8555 32.8992 55.5352 32.8992Z" fill="#3279BD"/>
</g>
<defs>
<clipPath id="clip0">
<rect width="82" height="39" fill="white"/>
</clipPath>
</defs>
</svg>
